<svg viewBox="0 0 36 36" xmlns="http://www.w3.org/2000/svg" xml:space="preserve" style="fill-rule:evenodd;clip-rule:evenodd;stroke-linejoin:round;stroke-miterlimit:2"><path d="M36 27V9a4 4 0 0 0-4-4H4a4 4 0 0 0-4 4v11.6h.026L0 25.7V27a4 4 0 0 0 4 4h28a4 4 0 0 0 4-4Z" style="fill:none;fill-rule:nonzero"/><clipPath id="a"><path d="M36 27V9a4 4 0 0 0-4-4H4a4 4 0 0 0-4 4v11.6h.026L0 25.7V27a4 4 0 0 0 4 4h28a4 4 0 0 0 4-4Z" clip-rule="nonzero"/></clipPath><g clip-path="url(#a)"><path style="fill:#a544d9" d="M6.587 9.142h13.724v6.217H6.587z" transform="matrix(2.6232 0 0 .59802 -17.278 21.822)"/><path style="fill:#e376e4" d="M6.587 9.142h13.724v6.217H6.587z" transform="matrix(2.6232 0 0 .59802 -17.278 18.104)"/><path style="fill:#f4afcd" d="M6.587 9.142h13.724v6.217H6.587z" transform="matrix(2.6232 0 0 .59802 -17.278 14.386)"/><path style="fill:#eee" d="M6.587 9.142h13.724v6.217H6.587z" transform="matrix(2.6232 0 0 .59802 -17.278 10.668)"/><path style="fill:#b6e5ec" d="M6.587 9.142h13.724v6.217H6.587z" transform="matrix(2.6232 0 0 .59802 -17.278 6.95)"/><path style="fill:#8b9ae7" d="M6.587 9.142h13.724v6.217H6.587z" transform="matrix(2.6232 0 0 .59802 -17.278 3.231)"/><path style="fill:#a428f1" d="M6.587 9.142h13.724v6.217H6.587z" transform="matrix(2.6232 0 0 .59802 -17.278 -.46)"/><path d="M35.885 11.833c0-5.45-4.418-9.868-9.867-9.868-3.308 0-6.227 1.633-8.018 4.129-1.791-2.496-4.71-4.129-8.017-4.129-5.45 0-9.868 4.417-9.868 9.868 0 .772.098 1.52.266 2.241C1.751 22.587 11.216 31.568 18 34.034c6.783-2.466 16.249-11.447 17.617-19.959.17-.721.268-1.469.268-2.242Z" style="fill:#b151fe;fill-rule:nonzero" transform="translate(12.5 12.5) scale(.30556)"/></g></svg>