<svg viewBox="0 0 200 200" xmlns="http://www.w3.org/2000/svg" xml:space="preserve" style="fill-rule:evenodd;clip-rule:evenodd;stroke-linejoin:round;stroke-miterlimit:2"><path d="M100 200c55.228 0 100-44.772 100-100S155.228 0 100 0 0 44.772 0 100s44.772 100 100 100zm18.398-46.595c0 4.037-3.279 7.309-7.324 7.309-27.415 0-49.639-22.178-49.639-49.537 0-4.036 3.279-7.308 7.324-7.308s7.324 3.272 7.324 7.308c0 19.286 15.666 34.92 34.991 34.92 4.045 0 7.324 3.272 7.324 7.308zm34.992-71.891c4.045 0 7.324 3.272 7.324 7.308 0 27.359-22.224 49.537-49.639 49.537-4.045 0-7.324-3.272-7.324-7.309 0-4.036 3.279-7.308 7.324-7.308 19.325 0 34.991-15.634 34.991-34.92 0-4.036 3.279-7.308 7.324-7.308zM46.61 118.486c-4.045 0-7.324-3.272-7.324-7.308 0-27.359 22.224-49.537 49.64-49.537 4.044 0 7.323 3.272 7.323 7.309 0 4.036-3.279 7.308-7.323 7.308-19.326 0-34.992 15.634-34.992 34.92 0 4.036-3.279 7.308-7.324 7.308zm35.107-71.891c0-4.037 3.279-7.309 7.324-7.309 27.415 0 49.64 22.178 49.64 49.537 0 4.036-3.28 7.308-7.324 7.308-4.045 0-7.324-3.272-7.324-7.308 0-19.286-15.667-34.92-34.992-34.92-4.045 0-7.324-3.272-7.324-7.308z"/></svg>