<svg version="1.1" xmlns="http://www.w3.org/2000/svg" viewBox="0 0 900 100">
	<rect x="0" y="0" width="900" height="100" fill="#e66100" />
	<rect x="100" y="0" width="900" height="100" fill="#c64600" />
	<rect x="200" y="0" width="900" height="100" fill="#c1381d" />
	<rect x="300" y="0" width="900" height="100" fill="#bc3323" />
	<rect x="325" y="0" width="900" height="100" fill="#b82e2a" />
	<rect x="350" y="0" width="900" height="100" fill="#b32931" />
	<rect x="375" y="0" width="900" height="100" fill="#af2438" />
	<rect x="400" y="0" width="900" height="100" fill="#921f48" />
	<rect x="500" y="0" width="900" height="100" fill="#70234e" />
	<rect x="600" y="0" width="900" height="100" fill="#67234d" />
	<rect x="625" y="0" width="900" height="100" fill="#5f244c" />
	<rect x="650" y="0" width="900" height="100" fill="#56244b" />
	<rect x="675" y="0" width="900" height="100" fill="#4e254a" />
	<rect x="700" y="0" width="900" height="100" fill="#30223b" />
	<rect x="800" y="0" width="900" height="100" fill="#241f31" />
</svg>