<svg viewBox="0 0 47 42" xmlns="http://www.w3.org/2000/svg" xml:space="preserve" style="fill-rule:evenodd;clip-rule:evenodd;stroke-linejoin:round;stroke-miterlimit:2"><path d="M23.071 5.815c2.093 0 3.953 1.476 3.953 3.294s-1.771 3.294-3.953 3.294c-.25 0-.575-.04-.977-.122a1.313 1.313 0 0 0-.914.146l-14.172 8.06a.662.662 0 0 0 .003 1.148l15.363 8.624c.399.224.885.225 1.285.003l15.446-8.586a.66.66 0 0 0 .006-1.149l-4.82-2.735c-.4-.227-.888-.23-1.29-.007l-5.087 2.822a.452.452 0 0 0-.229.344l-.002.048c0 1.819-1.771 3.295-3.953 3.295s-3.953-1.476-3.953-3.295c0-1.818 1.771-3.294 3.953-3.294.081 0 .174.005.28.013l.166.017.185.023c.281.038.567-.016.816-.153l7.524-4.173a1.975 1.975 0 0 1 1.855-.033l.08.042 10.506 5.965c1.317.747 1.332 2.628.055 3.405l-.07.041-7.03 3.907a.66.66 0 0 0 .015 1.159l6.96 3.661c1.383.727 1.416 2.694.06 3.467L23.99 47.094a1.978 1.978 0 0 1-1.959 0L1.01 35.095c-1.358-.775-1.32-2.746.066-3.469l7.037-3.671a.66.66 0 0 0 .018-1.159l-7.122-3.998c-1.317-.74-1.346-2.613-.08-3.4l.07-.042 17.492-9.947c.276-.157.487-.409.592-.709l.022-.07c.615-1.828 2.011-2.815 3.966-2.815zm9.76 24.267-8.637 4.966-.08.044a1.97 1.97 0 0 1-1.868-.035l-8.61-4.854a1.311 1.311 0 0 0-1.253-.02L7.42 32.778a.66.66 0 0 0-.021 1.157l15.163 8.676c.404.23.899.231 1.303 0l15.294-8.738a.658.658 0 0 0-.019-1.155l-5.043-2.66c-.398-.21-.875-.2-1.266.024z" style="fill:#24a1c1;fill-rule:nonzero" transform="translate(0 -5.815)"/></svg>