<svg width="1024pt" height="1024pt" viewBox="0 0 1024 1024" xmlns="http://www.w3.org/2000/svg" fill="#fff"><path d="M503.6 0h16.8c6.61 1.72 13.41 2.64 19.93 4.71 18.16 5.6 35.33 13.95 51.94 23.09 33.47 18.85 64.78 41.27 94.96 64.97 53.4 42.12 103.3 88.55 150.57 137.4 47.17 49.26 92.03 101.01 130.75 157.25 16.98 25.15 33 51.19 44.64 79.31 5.17 12.12 8.52 24.9 10.81 37.86v14.82c-2.9 17.99-8.99 35.28-16.92 51.64-15.53 32.38-35.62 62.32-56.82 91.21-44.96 60.57-96.04 116.36-149.86 169.14-50.84 49.24-104.35 96.03-162.64 136.33-17.02 11.63-34.52 22.61-52.72 32.32-16.29 8.54-33.14 16.36-51.03 20.91-4.82 1.23-9.76 1.89-14.6 3.04h-14.82c-25.68-4.01-49.57-15.02-72.15-27.49-25.67-14.29-50-30.87-73.56-48.38-54.51-40.82-105.34-86.41-153.3-134.7-22.93-22.76-44.96-46.42-66.37-70.61-26.34-29.91-51.54-60.86-74.71-93.3-20.37-28.91-39.74-58.9-53.41-91.64-5.33-12.31-8.77-25.3-11.09-38.47v-14.82c1.2-5.1 1.88-10.32 3.24-15.38 4.62-17.85 12.49-34.65 21.05-50.91 14.41-26.79 31.39-52.12 49.45-76.57 23.81-32.19 49.53-62.94 76.28-92.73 47.46-52.46 98.11-102.07 152.04-147.88 30.75-25.94 62.52-50.77 96.14-72.91 25.99-16.8 52.97-32.7 82.45-42.57 7.47-2.58 15.31-3.72 22.95-5.64m3.76 32.41c-12.94 2.33-25.13 7.5-37.09 12.79-25.36 11.61-49.36 25.99-72.25 41.87-33.41 23.45-65.08 49.28-95.72 76.21-28.13 24.8-55.33 50.65-81.65 77.36-47.88 49.14-93.52 100.72-133.18 156.8-17.28 24.92-32.94 51.1-44.98 78.98-4.09 9.77-8.01 19.72-9.95 30.17-1.28 6.39.19 12.85 1.92 19 2.94 10.15 7.01 19.94 11.39 29.56 14.42 31.11 32.92 60.18 53.36 87.66 22.76 30.91 47.44 60.36 73.03 88.96 47.94 53.33 99.42 103.51 154.23 149.76 24.04 20.16 48.73 39.57 74.53 57.45 27.05 18.4 55.53 35.08 86.15 46.83 10.18 3.45 21 7.89 31.9 5.32 12.81-2.75 24.93-7.93 36.82-13.31 36.5-16.94 69.96-39.67 101.77-64.16 52.73-40.74 102.01-85.81 148.68-133.34 35.26-36.24 69.06-73.95 100.35-113.69 31.11-39.73 60.44-81.76 78.87-129.05 3.56-10.41 8.17-21.45 5.61-32.63-2.68-12.56-7.77-24.43-12.99-36.1-19.59-42.41-46.92-80.65-75.93-117.06-23.23-29.25-47.95-57.3-73.42-84.61-50.33-53.45-104.02-103.84-161.61-149.41-32.6-25.58-66.59-49.79-103.91-68.04-12.19-5.94-24.66-11.45-37.7-15.28-5.91-1.6-12.09-3.17-18.23-2.04Z"/><path d="M508.36 46.47c5.37-1.27 10.69.83 15.75 2.4 18.34 6.36 35.87 14.84 52.86 24.18 33.45 18.31 63.9 41.5 93.56 65.34 57.41 46.52 110.87 97.81 160.86 152.19 24.92 27.24 48.87 55.38 71.38 84.64 16.83 21.89 32.96 44.42 46.38 68.59 10.06 17.99 19.23 36.56 25.97 56.07 1.71 5.29 3.82 10.94 2.26 16.54-3.27 12.47-8.53 24.32-13.88 36.01-11.85 25.15-26.18 49.11-42.4 71.68-27.12 37.72-57 73.4-88.28 107.74-32.6 35.67-66.84 69.85-102.54 102.41-32.8 29.78-66.82 58.3-102.7 84.31-19.93 14.6-40.96 27.7-62.96 38.96-13.37 6.77-27.04 13.06-41.26 17.84-5.05 1.62-10.44 3.45-15.77 2-9.85-2.48-19.23-6.51-28.55-10.46-28.54-12.74-55.61-28.69-80.85-47.08-25.69-18.37-50.2-38.32-74.23-58.78a1565.614 1565.614 0 0 1-154.04-153c-26.64-30.62-52.2-62.25-75.24-95.68C79.5 589.69 66 565.82 55.26 540.72c-3.36-8.19-6.79-16.42-8.8-25.07-1.3-5.65.99-11.21 2.68-16.51 8.8-24.97 21.24-48.5 34.97-71.08 17.62-28.38 38.21-54.77 59.22-80.69 42.85-52.16 89.59-101.08 138.95-147.11 29.64-27.51 60.33-53.9 92.36-78.6 34.56-26.89 71.57-51.18 112.21-67.87 7.03-2.8 14.1-5.66 21.51-7.32M368.07 191.98c-.11 106.68-.13 213.37 0 320.05 22.42-14.46 44.44-29.57 66.72-44.26 35.39-23.61 70.8-47.2 106.19-70.8 2.31-1.48 4.44-3.3 7.02-4.29.55.27 1.66.81 2.22 1.08 58.78 39.23 117.62 78.4 176.41 117.63.41 2.08-2.4 2.52-3.59 3.69-118.05 78.59-235.99 157.35-354.03 235.93-1.32.78-.8 2.65-1.02 3.93.07 25.69-.1 51.39.08 77.08 7.43-4.45 14.44-9.57 21.71-14.26 150.6-100.4 301.2-200.79 451.8-301.18 2.09-1.51 4.57-2.6 6.29-4.57-.22-.23-.66-.7-.88-.94-129.98-86.71-260.02-173.34-390.01-260.05-29.68-19.62-59.08-39.67-88.91-59.04Z"/></svg>