<svg viewBox="0 0 480 641" xmlns="http://www.w3.org/2000/svg" xml:space="preserve" style="fill-rule:evenodd;clip-rule:evenodd;stroke-linejoin:round;stroke-miterlimit:2"><path d="M368.07 191.98c-.11 106.68-.13 213.37 0 320.05 22.42-14.46 44.44-29.57 66.72-44.26 35.39-23.61 70.8-47.2 106.19-70.8 2.31-1.48 4.44-3.3 7.02-4.29.55.27 1.66.81 2.22 1.08 58.78 39.23 117.62 78.4 176.41 117.63.41 2.08-2.4 2.52-3.59 3.69-118.05 78.59-235.99 157.35-354.03 235.93-1.32.78-.8 2.65-1.02 3.93.07 25.69-.1 51.39.08 77.08 7.43-4.45 14.44-9.57 21.71-14.26 150.6-100.4 301.2-200.79 451.8-301.18 2.09-1.51 4.57-2.6 6.29-4.57-.22-.23-.66-.7-.88-.94-129.98-86.71-260.02-173.34-390.01-260.05-29.68-19.62-59.08-39.67-88.91-59.04Z" style="fill:#fff" transform="translate(-367.98 -191.98)"/></svg>