<svg viewBox="0 0 50 50" xmlns="http://www.w3.org/2000/svg" xml:space="preserve" style="fill-rule:evenodd;clip-rule:evenodd;stroke-linejoin:round;stroke-miterlimit:2"><path d="M28.347 5.157c-13.6 0-24.625 11.027-24.625 24.625 0 13.6 11.025 24.623 24.625 24.623s24.625-11.023 24.625-24.623c0-13.598-11.026-24.625-24.625-24.625zm-9.441 32.254h-.005c-4.25 0-7.748-3.498-7.748-7.748 0-4.283 3.47-7.75 7.751-7.75h.002c4.25 0 7.748 3.498 7.748 7.748v.002c0 4.25-3.498 7.748-7.748 7.748zm19.445 0h-.003c-4.25 0-7.747-3.497-7.747-7.747v-.003c0-4.25 3.498-7.748 7.748-7.748h.002c4.251 0 7.749 3.498 7.749 7.749 0 4.251-3.498 7.749-7.749 7.749z" style="fill-rule:nonzero" transform="translate(-3.722 -5.157)"/></svg>