<svg viewBox="0 0 241 241" xmlns="http://www.w3.org/2000/svg" xml:space="preserve" style="fill-rule:evenodd;clip-rule:evenodd;stroke-linejoin:round;stroke-miterlimit:2"><path d="M65.65 12.7C74.49 10 83.7 8.17 92.99 8.28c9.67.06 19.34.03 29.01.03 5.57-.02 11.5-.6 16.6 2.13 8.86 4.06 14.56 13.9 13.69 23.6-.56 11.88-11.33 22.31-23.27 22.26-11.65.12-23.3-.13-34.95.08-10.27.29-21.3 3.41-27.89 11.8-7.73 10.04-10.5 23.26-9.84 35.73 4.18.74 8.44.37 12.66.4 17.67 0 35.34.01 53 0 5.57-.02 11.5-.6 16.59 2.13 8.86 4.06 14.58 13.89 13.71 23.6-.53 10.54-9.03 19.99-19.37 21.88-4.94.76-9.95.31-14.93.39-20.54.07-41.09-.11-61.63.06-.17 24.21.02 48.44-.07 72.65.02 7.33-3.89 14.28-9.71 18.61-6.89 5.35-16.82 6.21-24.63 2.42-8.02-3.64-13.79-12.11-13.69-21 .11-44.35-.03-88.71.07-133.07 1.18-16.89 6.41-33.66 15.75-47.85 9.74-14.81 24.63-26.14 41.56-31.43z" style="fill-rule:nonzero" transform="translate(-8.269 -8.141)"/><path d="M150.07 8.29c18.18-.91 36.7 2.33 52.99 10.59 16.9 8.23 30.89 22.56 38.12 39.97 6.23 14.5 7.59 30.53 7.13 46.16 0 18.66.01 37.32 0 55.99-.15 18.69-5.12 37.76-16.5 52.83-13.84 18.73-36.18 29.68-58.85 33.13-10.24 1.64-20.63 1.15-30.96 1.22-15.01-.03-30.02.1-45.02-.01-8.52.1-17.13-4.29-21.34-11.82-3.27-5.24-4.2-11.74-2.85-17.73 2.22-9.15 10.16-16.82 19.57-18.12 4.2-.5 8.43-.22 12.64-.25 17-.05 33.99-.06 50.99-.03 9.78.08 19.71-2.1 28.22-7.02 6.07-3.53 10.94-9.12 13.28-15.78 2.84-7.46 2.92-15.55 2.84-23.42-.04-19-.01-37.99-.01-56.99-.05-9.09-1.49-18.74-7.23-26.11-6.08-7.91-15.81-11.81-25.31-13.74-5.81-1.34-11.79-.61-17.67-1.07 7.65-8.08 12.18-19.61 9.41-30.72-1.19-6.62-5.31-12.01-9.45-17.08z" style="fill-rule:nonzero" transform="translate(-8.269 -8.141)"/></svg>