<svg viewBox="0 0 6077 6076" xmlns="http://www.w3.org/2000/svg" xml:space="preserve" style="fill-rule:evenodd;clip-rule:evenodd;stroke-linejoin:round;stroke-miterlimit:2"><path d="M728.513 1385.84c362.377-.42 655.197-291.98 656.407-654.096 1.22-363.461-291.35-657.367-654.165-658.473C367.059 72.162 73.071 365.213 72.468 728.374c-.602 363.466 293.209 657.456 656.045 657.466zm729.837-655.675c-.03 402.705-327.07 729.675-730.413 728.835C324.388 1458.15-.862 1132.26.001 728.266.864 324.783 327.086-.318 731.15.803c402.74 1.118 726.41 326.333 727.2 729.362z" style="fill-rule:nonzero" transform="translate(.003 -3.334) scale(4.16667)"/><path d="M425.812 725.886c-.205-4.062-.338-10.312-.865-16.528-1.251-14.753-3.916-29.179-10.645-42.577-6.778-13.494-17.475-22.087-32.36-24.683a81.168 81.168 0 0 0-19.745-.978c-16.857 1.249-30.131 8.95-37.769 24.38-3.509 7.087-6.303 14.712-8.155 22.399-5.084 21.107-4.954 42.602-2.871 64.066 1.258 12.962 4.149 25.592 10.08 37.366 5.581 11.077 13.785 19.326 25.706 23.192 13.329 4.323 26.805 4.248 40.094-.311 15.39-5.282 23.694-17.201 28.922-31.771 6.075-16.932 7.329-34.582 7.608-54.555zm77.82 3.504c-.333 25.951-4.187 52.643-16.64 77.385-19.024 37.796-50.256 58.85-91.667 65.131-24.989 3.791-49.914 3.019-74.136-4.718-39.671-12.673-64.498-40.308-77.656-79.112-8.555-25.227-10.544-51.234-8.433-77.647 2.067-25.855 8.389-50.483 22.171-72.705 19.832-31.974 49.054-49.778 85.935-55.107 25.258-3.648 50.451-2.845 74.775 5.578 41.953 14.526 67.33 44.467 78.842 86.796 4.715 17.334 6.653 35.044 6.809 54.399zm473.391-142.083c25.517-4.409 50.687-4.328 76.307-.014v4.1c0 87.108-.02 174.215.08 261.324 0 3.092-.95 4.253-3.81 5.128-39.77 12.173-80.316 18.234-121.942 15.437-17.94-1.205-35.878-2.831-52.973-9.091-32.32-11.835-50.565-36.066-59.662-68.18-5.356-18.907-6.636-38.352-6.671-57.879-.088-49.116-.032-98.231-.024-147.347 0-1.102.105-2.204.17-3.511 25.588-4.34 50.99-4.351 76.751.04v5.004c.037 50.864-.154 101.731.304 152.592.092 10.248 1.804 20.679 4.24 30.666 4.917 20.155 18.464 31.417 38.962 34.081 14.729 1.914 29.398 1.134 43.993-1.699 3.296-.64 4.37-1.85 4.364-5.338-.119-70.112-.089-140.222-.089-210.334v-4.979zm-245.06 63.464c-12.273-3.503-23.988-7.476-35.997-10.116-15.096-3.318-30.47-4.167-45.704-.404-7.992 1.974-15.176 5.398-18.254 13.903-4.074 11.256-.128 22.604 10.872 27.249 12.02 5.075 24.663 8.678 37.03 12.933 10.843 3.729 21.942 6.855 32.468 11.328 27.984 11.891 41.873 33.837 43.919 63.807 1.72 25.177-4.309 47.837-21.578 66.828-14.944 16.432-33.976 25.959-55.022 31.846-22.951 6.421-46.403 6.564-69.929 4.92-20.313-1.42-39.895-6.252-58.997-13.2-2.111-.768-2.88-1.715-2.628-4.037 2.015-18.527 6.967-36.234 14.538-53.233.249-.56.558-1.095 1.048-2.048 1.412.496 2.783.945 4.132 1.455 21.814 8.233 44.199 13.383 67.692 12.293 10.8-.502 21.372-2.16 31.048-7.439 12.962-7.073 17.798-17.514 14.404-30.778-1.304-5.097-3.814-9.518-8.523-11.773-7.728-3.702-15.594-7.268-23.707-9.982-14.66-4.903-29.656-8.808-44.3-13.758-10.827-3.659-20.511-9.639-29.327-17.021-12.312-10.313-18.129-23.937-20.157-39.379-2.293-17.469-1.382-34.72 5.824-51.104 9.657-21.955 27.172-35.321 48.993-43.618 19.102-7.264 39.069-8.93 59.323-8.58 25.847.448 50.795 5.597 75.159 13.956 1.609.552 3.251.8 2.938 3.409-2.176 18.119-6.81 35.512-14.872 51.934-.162.33-.402.622-.393.609zm476.727-173.044c-1.81 88.384-3.62 176.444-5.44 264.867-24.25 4.449-48.39 4.415-72.98.049-1.81-88.218-3.61-176.379-5.42-264.874 27.9-4.412 55.58-4.315 83.84-.042zM1166.49 784c12.44 1.138 24.74 2.291 37.04 3.361 2.26.196 3.21 1.23 3.53 3.459 3.5 24.51 3.54 49.008.02 73.521-.31 2.17-1.12 3.213-3.4 3.547-17.73 2.601-35.53 3.384-53.4 2.151-6.6-.454-13.15-1.403-19.74-2.011-2.62-.243-3.79-1.423-4.17-4.09-3.44-24.269-3.37-48.518.07-72.776.31-2.185.97-3.612 3.58-3.83 12.18-1.022 24.34-2.208 36.47-3.332z" style="fill-rule:nonzero" transform="translate(.003 -3.334) scale(4.16667)"/></svg>