<svg viewBox="0 -100 639 489" xmlns="http://www.w3.org/2000/svg" xml:space="preserve" style="fill-rule:evenodd;clip-rule:evenodd;stroke-linejoin:round;stroke-miterlimit:2"><path d="M513.72 382.73c15.4-10.2 34.01-14.18 52.18-15.65 13.4-.22 26.96-.82 40.16 1.99 34.33 6.4 65.82 26.08 87.22 53.6 13.69 17.51 23.24 38.18 27.91 59.9 20.47-5.92 43.13-3.55 62.06 6.19 28.55 14.34 47.7 45.31 47.76 77.26.58 17.97-4.98 35.99-15.25 50.71-14.56 21.1-38.43 35.45-63.88 38.46-5.61.64-11.26.66-16.89.65-70.68-.03-141.37.03-212.05-.03-9.87.25-18.19-9.04-17.75-18.72 0-79.05-.02-158.11.01-237.17-.16-6.67 2.85-13.48 8.52-17.19zm-46.24 26c3.54-2.22 8.77-.36 10.04 3.65.99 3.77.81 7.73 1.26 11.58 6.18 75.39 10.18 151.69-1 226.82-1.26 6.55-12.33 6.61-13.55.02-10.91-78.21-6.17-157.46-.25-235.88.13-2.46 1.29-4.96 3.5-6.19zm-88.03 20.67c4.26-2.5 10.24.68 10.47 5.63 7.23 71.63 10.49 144.31-.25 215.76-1.24 6.63-12.37 6.72-13.56.02-10.21-69.34-7.25-139.8-.85-209.35.52-4.16-.2-9.75 4.19-12.06zm43.86 6.86c4.23-2.37 10.27.5 10.73 5.43 7.75 69.35 10 139.79-.16 209.03-1.24 6.26-11.42 6.92-13.8 1.18-1.01-3.18-.98-6.57-1.47-9.84-7.89-66.45-5.7-133.66.89-200.11.26-2.36 1.62-4.65 3.81-5.69zm-86.84 13.33c3.95-1.43 8.79 1.18 9.48 5.4 8.08 64.93 9.41 131.06-.54 195.87-1.35 6.63-12.63 6.6-13.9-.06-9.07-64.81-7.51-130.74.2-195.61.38-2.57 2.25-4.85 4.76-5.6zm-90.05 41.89c4.06-2.33 10.35-.23 11.18 4.66 4.6 22.65 6.78 45.78 6.61 68.89-.24 26.81-2.98 53.6-7.17 80.05-2.28 5.19-11.08 5.34-13.44.16-1.14-4.32-1.18-8.85-1.86-13.26-5.6-45.3-7.39-91.65 1.49-136.66.44-1.67 1.69-3.03 3.19-3.84zm44.82 6.71c3.72-2.01 8.95.1 10.07 4.21 5.34 23.12 7.47 46.92 6.98 70.62-.45 25.47-3.64 50.77-6.85 76.01-.22 1.64-.56 3.39-1.75 4.64-3.36 3.88-11.23 2.38-11.85-3.11-5.8-46.65-10.77-94.4-1.55-140.97 1-3.95.64-9.35 4.95-11.4zm-88.83 17.25c3.45-1.82 8.16-.37 9.94 3.1 6.33 18.39 8.84 38.09 7.34 57.49-1 14.42-3.84 28.61-6.88 42.71-.51 2.96-2.79 5.66-5.85 6.09-3.35.66-6.83-1.73-7.58-5.02-4.59-22.97-7.83-46.49-5.85-69.96.81-9.96 2.69-19.8 5.15-29.48.45-2.09 1.81-3.97 3.73-4.93z" style="fill-rule:nonzero" transform="translate(-192.937 -366.871)"/></svg>