<svg xmlns="http://www.w3.org/2000/svg" width="1200" height="923.76" viewBox="0 0 1200 923.76" fill="#fff"><path d="M.563 0C.423.257.141.756 0 1v652.663c5.906-4.08 15.01-6.286 15.9-17.153.094-151.356.009-302.726.037-454.08C121.331 121.704 226.65 60.762 332.025 0h-63.59c-1.688.68-3.32 1.618-4.942 2.554-15.778 9.315-31.706 18.14-47.437 27.57.084-10.045.02-20.078.038-30.124H184.22c.019 16.114-.047 32.23.037 48.344-22.828 13.189-45.656 26.379-68.493 39.542.056-29.29-.001-58.595.018-87.886H83.907c.01 35.424-.02 70.86.008 106.284-22.66 13.099-45.337 26.134-67.978 39.284-.01-48.523 0-97.045 0-145.568zm468.993 0-.87.462c105.224 60.61 210.383 121.41 315.57 182.147-.093 151.253 0 302.519-.046 453.784.169 5.632 3.693 10.021 7.227 12.254 66.657 38.4 133.257 76.953 199.913 115.366 5.41 3.375 11.795 3.516 17.223.09 63.778-37.001 127.714-73.515 191.427-110.709V.771c-.178-.193-.543-.579-.721-.771h-15.216v625.86c-22.678 13.075-45.413 26.02-68.007 39.35.084-218.674.03-437.35.03-656.024 5.324-3.053 10.64-6.171 15.983-9.186h-64.097c-22.612 13.138-45.281 26.084-67.885 39.247C977.203 26.353 954.544 12.65 931.585 0h-63.63c5.382 3.015 10.718 6.196 16.108 9.224 0 218.649.01 437.298 0 655.96-22.65-13.151-45.328-26.186-67.978-39.285.028-208.642 0-417.27.008-625.899H784.22c.019 48.536-.038 97.085.018 145.621a42568.171 42568.171 0 0 1-68.493-39.555c.085-35.347.019-70.707.037-106.066h-31.875c.028 29.29-.055 58.569.038 87.86-22.603-13.33-45.328-26.275-68.006-39.35V0h-31.876v30.099C566.756 20 549.384 10.11 532.087 0Zm614.72 27.597c-.113 218.61-.067 437.235-.03 655.858-22.856 13.138-45.664 26.416-68.53 39.503.132-218.623.056-437.246.038-655.87 22.857-13.111 45.657-26.404 68.522-39.491zm-168.347.026c22.566 13.19 45.243 26.031 67.79 39.259.431 31.485.057 63.215.188 94.79.028 187.099-.066 374.2.047 561.3-22.584-13.383-45.329-26.304-68.016-39.365 0-218.661 0-437.322-.008-655.984zM401.332 41.777c-3.398-.32-6.828.428-9.982 2.5-99.15 57.17-198.253 114.495-297.403 171.652C89.08 218.2 84 223.435 83.925 231.12c-.066 150.855.019 301.71-.037 452.577C55.913 699.85 27.872 715.797 0 732.246v36.887c35.681-20.798 71.428-41.364 107.184-61.93 4.088-2.117 8.39-6.71 8.606-13.126-.046-151.252.048-302.493-.046-453.733 94.79-54.72 189.534-109.543 284.362-164.121 94.575 54.72 189.216 109.248 283.81 163.903-.038 150.458.01 300.915-.018 451.36-.29 6.62 3.271 12.175 7.433 14.806 100.003 57.722 199.997 115.495 300.01 173.178 5.644 3.58 12.328 3.452 17.925-.282 63.544-36.886 127.256-73.258 190.734-110.324v-36.887c-66.581 38.708-133.303 76.955-199.913 115.56-94.81-54.591-189.552-109.414-284.333-164.108.075-141.874.009-283.736.028-425.61-.085-10.02.15-20.04-.084-30.048-1.463-6.928-6.497-10.47-11.1-12.69-97.838-56.4-195.638-112.941-293.466-169.393-3.033-2.2-6.402-3.59-9.8-3.91zm-1.869 115.376c-2.807.133-5.6 1.04-8.17 2.631-65.728 37.849-131.39 75.93-197.137 113.74-4.547 2.155-9.675 6.684-9.947 13.92.047 151.227-.047 302.48.047 453.72C122.859 776.754 61.322 811.907 0 847.716v76.044h15.937v-48.51c22.678-13.075 45.404-26.02 68.007-39.35-.094 29.291-.01 58.57-.037 87.86h31.874c-.028-35.36.057-70.706-.037-106.066a42455.712 42455.712 0 0 1 68.494-39.555c-.056 48.536 0 97.085-.02 145.621h31.876c-.009-208.628.019-417.27-.01-625.899 22.66-13.099 45.328-26.134 67.978-39.284.01 218.66 0 437.31 0 655.959-5.381 3.015-10.715 6.196-16.096 9.224h63.6c22.968-12.625 45.628-26.353 68.531-39.247 22.594 13.163 45.262 26.11 67.865 39.247h64.228c-5.419-2.912-10.734-6.146-16.106-9.186 0-218.675.057-437.35-.028-656.024 22.594 13.33 45.328 26.275 68.006 39.35v625.86h31.875c0-48.523-.009-97.047 0-145.557 22.64 13.138 45.319 26.174 67.978 39.273-.028 35.424-.01 70.86-.01 106.284h31.876c-.019-29.29.037-58.595-.02-87.886a42451.39 42451.39 0 0 1 68.495 39.555c-.085 16.102-.018 32.217-.037 48.331h31.874c-.019-10.046.047-20.079-.037-30.125 17.4 10.2 34.8 20.464 52.36 30.125h63.628C826.66 863.01 721.331 802.042 615.938 741.33V288.586c.234-8.122-5.532-12.752-10.388-15.203-65.962-38.028-131.897-76.133-197.84-114.212-2.62-1.508-5.44-2.15-8.247-2.017zm-15.51 43.636c-.103 218.674-.037 437.363-.037 656.05-22.66 13.099-45.347 26.121-67.988 39.298.02-218.662.01-437.323.01-655.984 22.688-13.074 45.422-25.995 68.015-39.364zm31.782.013c22.856 13.074 45.646 26.38 68.503 39.492-.019 218.623-.076 437.246.027 655.869-22.856-13.074-45.637-26.392-68.502-39.465.009-218.636.075-437.273-.028-655.896zM1200 847.447c-43.819 25.66-87.9 50.538-131.68 76.313h64.978l-.732-.654c17.315-9.263 34.313-19.668 51.497-29.445 0 10.034-.01 20.066 0 30.099H1200z"/></svg>